<?xml version="1.0" standalone="no"?>
<!DOCTYPE svg PUBLIC "-//W3C//DTD SVG 20010904//EN"
 "http://www.w3.org/TR/2001/REC-SVG-20010904/DTD/svg10.dtd">
<svg version="1.0" xmlns="http://www.w3.org/2000/svg"
 width="512.000000pt" height="512.000000pt" viewBox="0 0 512.000000 512.000000"
 preserveAspectRatio="xMidYMid meet">
<metadata>
Created by potrace 1.14, written by Peter Selinger 2001-2017
</metadata>
<g transform="translate(0.000000,512.000000) scale(0.100000,-0.100000)"
fill="#000000" stroke="none">
<path d="M3170 4150 c-324 -55 -576 -299 -645 -626 -15 -69 -14 -253 1 -302 6
-22 5 -22 -47 -17 -30 2 -81 8 -114 12 -33 4 -64 8 -70 8 -130 14 -408 96
-558 165 -36 16 -67 30 -70 30 -8 0 -169 91 -227 128 -183 118 -368 278 -502
435 -13 15 -27 27 -31 27 -14 0 -77 -158 -93 -235 -12 -62 -12 -213 1 -289 20
-116 68 -226 141 -327 37 -51 159 -169 174 -169 6 0 10 -4 10 -9 0 -6 -8 -8
-18 -7 -9 2 -42 7 -72 11 -62 8 -157 38 -212 66 -20 10 -39 19 -42 19 -14 0 9
-155 35 -239 41 -130 100 -224 204 -326 88 -85 187 -146 301 -183 l86 -28 -59
-12 c-32 -6 -110 -9 -174 -8 l-117 3 19 -46 c76 -181 207 -322 377 -406 97
-47 130 -57 261 -78 l75 -12 -86 -57 c-215 -143 -446 -228 -718 -264 -56 -7
-296 -7 -330 0 l-25 5 25 -19 c66 -53 439 -219 550 -245 8 -2 52 -13 98 -25
81 -20 218 -43 337 -55 60 -6 329 -7 395 -1 62 6 164 18 185 22 11 2 31 6 45
9 14 2 36 7 50 9 22 4 72 16 190 46 41 11 176 60 240 88 296 128 548 312 759
553 90 103 103 119 179 234 258 388 386 803 391 1270 1 90 1 90 34 112 77 54
186 160 274 268 40 49 73 92 73 97 0 4 -30 -4 -67 -19 -38 -14 -90 -32 -118
-40 -59 -16 -238 -53 -242 -49 -2 1 16 16 40 33 41 30 132 117 173 166 24 29
114 199 114 216 0 6 -39 -9 -87 -33 -129 -65 -271 -116 -363 -131 -19 -3 -36
-8 -39 -10 -2 -3 -28 18 -58 45 -90 83 -211 146 -338 177 -68 17 -248 24 -315
13z"/>
</g>
</svg>
